<svg width="1280" height="263" viewBox="0 0 1280 263" fill="none" xmlns="http://www.w3.org/2000/svg">
<g clip-path="url(#clip0_362_148)">
<path d="M291 263.03V-299" stroke="url(#paint0_linear_362_148)" stroke-opacity="0.33" stroke-miterlimit="11.4737" stroke-dasharray="1.56 1.56"/>
<path d="M291.489 190.113L288.332 180.577L284.314 174.279L280.297 176.988L276.279 179.967L272.261 180.509L268.244 179.696L264.226 181.592L260.209 187.28L256.191 182.134L252.173 178.342L248.156 178.524L244.138 173.467L240.121 180.509L236.103 195.948L232.085 181.051L228.068 179.696L224.05 181.592L220.032 185.791L216.015 180.241L211.997 179.426L207.98 151.256L203.962 155.59L199.945 158.298L195.927 150.173L191.909 146.245L187.892 144.214L183.874 145.839L179.856 150.443L175.839 152.204L171.821 149.902L167.803 146.651L163.786 136.144L159.768 112.252L155.75 109.273L151.733 119.814L147.715 111.169L143.698 104.397L139.68 113.606L135.663 154.506L131.645 159.111L127.627 155.725L123.61 161.007L119.592 158.298L115.574 158.867L111.557 93.2914L107.539 87.8743L103.522 89.7704L99.5039 94.6459L95.4863 95.4585L91.4686 94.9169L87.451 123.086L83.4333 111.71L79.4161 125.795L75.3985 122.815L71.3809 123.628L67.3632 115.502L63.3456 122.274L59.3279 119.971L55.3103 121.193L51.2926 119.294L47.275 117.127L43.2573 113.065L39.2397 131.212L35.2221 133.921H31.2044L27.1868 133.108L23.1691 130.264L19.1519 121.732L15.1343 109.273L11.1166 108.189L7.09899 107.918L3.08135 107.376L-0.936297 109.002L-4.95394 115.502L-8.97158 91.9374L-12.9892 97.6255L-17.0069 99.7925L-21.0245 98.4922L-25.0422 104.397L-29.0598 91.9374L-33.0774 53.7458L-37.0951 50.7663L-41.1127 47.7867L-45.1299 41.0151L-49.1478 43.4531L-53.1654 54.8293L-57.183 131.662L-61.2006 137.984L-65.2182 134.192L-69.2358 130.484L-73.2534 131.483L-77.271 128.503L-81.2887 74.3311L-85.3063 70.2685L-87 62.6349" stroke="white" stroke-opacity="0.33" stroke-linecap="round" stroke-linejoin="round"/>
<path d="M291.49 189.376L295.51 185.46L299.531 188.711L303.552 182.264L307.573 175.574L311.594 178.418L315.615 171.646L319.636 173.001L323.656 178.421L327.677 173.813L331.698 167.312L335.719 171.917L339.74 163.25L343.76 152.686L347.78 151.874L351.804 152.361L355.824 152.686L359.844 153.499L363.864 157.862L367.888 200.629L371.908 198.191L375.927 190.607L379.947 181.127L383.971 174.355L387.991 171.104L392.011 186.273L396.031 195.347L400.055 194.67L404.075 203.879L408.095 206.587L412.114 206.316L416.139 161.354L420.158 171.646L424.178 173.813L428.198 172.73L432.218 169.75L436.242 166.364L440.262 126.502L444.282 126.142L448.302 123.704L452.326 126.413L456.346 109.619H460.365L464.385 115.037L468.409 121.537L472.429 112.87L476.449 116.933L480.469 130.475L484.493 130.205L488.513 132.371L492.533 131.559L496.552 138.872L500.577 144.289L504.596 146.456L508.616 149.436L512.636 137.789L516.66 166.73L520.68 170.292L524.7 175.168L528.72 181.939L532.744 173.001L536.764 196.295L540.783 189.523L544.803 180.856L548.827 164.062L552.847 162.437L556.867 160.135L560.887 137.884L564.907 129.663L568.931 130.475L572.951 130.746L576.971 130.475L580.99 128.038L585.015 146.186L589.034 240.232L593.054 253.991L597.074 233.607L601.098 236.169L605.118 231.836L609.138 218.097L613.158 217.751L617.182 218.292L621.202 214.229L625.221 213.688L629.241 211.792L633.265 196.629L637.285 196.353L641.305 195.269L645.325 193.915L649.349 192.019L653.369 187.414L657.389 197.436L661.409 228.261L665.433 229.209L669.452 229.615L673.472 226.094L677.492 222.167L681.516 263.202L685.536 257.244L689.556 254.808L693.576 256.297L697.596 259.137L701.62 252.636L705.64 214.699L709.659 222.844L713.679 217.968L717.703 213.128L721.723 214.718L725.743 215.53L729.763 203.883L733.787 207.675L737.807 202.529L741.827 202.922L745.846 203.342L749.871 201.446L753.89 169.619L757.91 167.859L761.93 163.254L765.954 174.216L769.974 173.818L773.994 175.443L778.014 152.69L782.038 145.377L786.058 144.836L790.078 138.606L794.097 137.793L798.122 143.752L802.141 92.8301L806.161 87.413L810.181 90.9341L814.205 89.58L818.225 86.6005L822.245 84.7044L826.265 113.145L830.284 121.317L834.309 117.208L838.328 118.833L842.348 113.686L846.368 115.853L850.392 99.0601L854.412 94.4582L858.432 95.2681L862.452 94.7261L866.476 81.9985L870.496 77.1203L874.515 54.6389L878.535 64.3896L882.559 51.3884L886.579 50.0339L890.599 62.4936L894.619 76.5783L898.643 49.4924L902.663 57.618L906.683 53.0135L910.702 51.93L914.727 54.3679L918.747 42.1793L922.766 73.8698L926.786 52.7425L930.81 57.3475L934.83 51.1174L938.85 48.1379L942.87 50.0339L946.894 103.123L950.914 105.967L954.934 110.165L958.953 112.874L962.973 109.624L966.997 104.206L971.017 135.369L975.037 141.585L979.057 140.502L983.081 144.294L987.101 142.669L991.121 145.648L995.14 138.335L999.165 125.876L1003.18 127.772L1007.2 131.834L1011.22 127.772L1015.25 126.688L1019.27 85.7879L1023.29 77.9328L1027.31 81.1833L1031.33 76.4433L1035.35 77.6618L1039.37 80.6414L1043.39 65.3376L1047.42 66.8276L1051.44 60.5976L1055.46 62.8189L1059.47 63.0356L1063.5 69.8072L1067.52 88.7675L1071.54 80.3704L1075.56 88.2255L1079.58 85.246L1083.6 83.8919L1087.62 89.309L1091.64 113.416L1095.66 110.572L1099.69 111.249L1103.71 108.54L1107.73 112.603L1111.75 108.269L1115.77 99.3311L1119.79 101.227L1123.81 93.6426L1127.83 96.2161L1131.85 99.6017L1135.87 94.7261L1139.89 66.2857L1143.91 72.5157L1147.94 69.9422L1151.96 70.0777L1155.98 76.3078L1160 77.3913L1164.02 42.924L1168.04 39.3352L1172.06 45.7763L1176.08 45.1262L1180.1 49.7634L1184.12 51.93L1188.14 54.9095L1192.16 53.3114L1196.19 52.5262L1200.21 53.2845L1204.23 57.0765L1208.25 51.3884L1212.27 28.3651L1216.29 18.0724L1220.31 24.844L1224.33 26.4691L1228.35 24.302L1232.38 20.031L1236.39 -29.3283L1240.41 -12.535L1244.43 -16.0561L1248.46 -19.0356L1252.48 -15.9206L1256.5 -16.3271L1260.52 -86.2092L1264.54 -82.1461L1268.56 -91.6263L1272.58 -88.6472L1276.6 -77L1280.63 -77.8125L1284.65 -107.607L1288.67 -99.4814L1292.69 -107.336L1296.71 -110.587L1300.73 -103.544L1304.75 -101.513L1308.77 -92.9808L1312.79 -99.7524L1316.81 -95.9603L1320.83 -104.899L1324.85 -109.233L1328.88 -78.4896L1332.9 -131.985L1336.92 -119.119L1340.94 -103.002L1353 -121.128" stroke="url(#paint1_linear_362_148)" stroke-linecap="round" stroke-linejoin="round"/>
</g>
<defs>
<linearGradient id="paint0_linear_362_148" x1="291.5" y1="-299" x2="291.5" y2="263.03" gradientUnits="userSpaceOnUse">
<stop stop-color="white" stop-opacity="0"/>
<stop offset="1" stop-color="white"/>
</linearGradient>
<linearGradient id="paint1_linear_362_148" x1="-555.001" y1="-531.987" x2="1505.84" y2="-1188.76" gradientUnits="userSpaceOnUse">
<stop stop-color="#6557FF"/>
<stop offset="0.30348" stop-color="#AA3FFF"/>
<stop offset="0.565236" stop-color="#AA3FFF"/>
<stop offset="1" stop-color="#F8522E"/>
</linearGradient>
<clipPath id="clip0_362_148">
<rect width="1440" height="263" fill="white" transform="translate(-87)"/>
</clipPath>
</defs>
</svg>
